<svg width="129" height="14" viewBox="0 0 129 14" fill="none" xmlns="http://www.w3.org/2000/svg">
<g clip-path="url(#clip0)">
<path d="M12.0288 1.07983H21.0247L21.258 3.79776H20.7249C20.525 2.6628 20.4916 2.45373 20.0252 2.00572C19.5587 1.55771 18.6591 1.61745 17.9261 1.61745H15.6272C15.4606 1.61745 15.3273 1.64731 15.194 1.76678C15.0941 1.88625 15.0274 2.03559 15.0608 2.18492V5.64953H16.0603C16.5601 5.64953 17.0599 5.47033 17.3597 5.14179C17.7262 4.69378 17.9261 4.1263 17.8928 3.52895H18.4259V8.39732H17.8928C17.8595 7.59091 17.6929 7.02343 17.3597 6.66502C16.9932 6.30661 16.4935 6.12741 15.9604 6.12741H15.0274V10.04C15.0274 10.1595 15.0941 10.3088 15.194 10.3984C15.3606 10.488 15.5605 10.5478 15.7604 10.5179H17.593C19.5587 10.5179 20.6915 9.95043 20.9914 7.68051H21.5578L21.3579 11.0555H12.0288V10.5179H12.5286C12.7618 10.5478 12.995 10.488 13.1949 10.3686C13.3282 10.2491 13.3949 10.0998 13.3949 9.95043V2.15506C13.3949 2.00572 13.3615 1.85638 13.2283 1.73691C13.095 1.64731 12.8951 1.58758 12.6952 1.58758H12.0288V1.07983Z" fill="#32448C"/>
<path d="M20.8582 4.39535H24.923V4.87322C24.6231 4.84336 24.2899 4.90309 23.9901 4.99269C23.8568 5.05243 23.7902 5.1719 23.7902 5.29137C23.7902 5.38097 23.8235 5.50044 23.8568 5.59004L25.8226 9.53252L27.6551 5.70951C27.6884 5.64977 27.6884 5.59004 27.6884 5.50044C27.6884 5.14203 27.3219 4.93296 26.5556 4.84336V4.36548H29.6542V4.84336C29.3876 4.84336 29.1211 4.93296 28.9212 5.08229C28.7212 5.20176 28.588 5.38097 28.488 5.59004L25.7559 11.2648H25.3228L22.3908 5.4407C22.3242 5.2615 22.1909 5.11216 21.991 4.99269C21.6245 4.90309 21.258 4.84336 20.8915 4.87322L20.8582 4.39535Z" fill="#32448C"/>
<path d="M32.5199 4.18605C33.4861 4.15619 34.3857 4.5146 35.0521 5.17168C35.7518 5.85862 36.1183 6.78451 36.0849 7.74027C36.1183 8.39735 35.9517 9.02456 35.6185 9.62191C35.3186 10.1297 34.8855 10.5478 34.3191 10.8465C33.7527 11.1451 33.1196 11.2945 32.4866 11.2945C31.5537 11.2945 30.6541 10.9361 30.021 10.3089C28.6883 8.81549 28.6883 6.69491 30.021 5.20154C30.6541 4.54446 31.5537 4.18605 32.5199 4.18605ZM32.5199 4.6938C31.9202 4.6938 31.3871 4.9626 31.0539 5.41061C30.6874 5.88849 30.4875 6.66504 30.4875 7.68053C30.4875 8.72589 30.6874 9.50244 31.0539 10.0102C31.3538 10.4582 31.9202 10.7569 32.5199 10.7569C33.1196 10.7569 33.686 10.4881 34.0192 10.0102C34.419 9.53231 34.5856 8.72589 34.5856 7.6208C34.5856 6.57544 34.3857 5.85862 34.0192 5.38075C33.686 4.9626 33.1196 4.6938 32.5199 4.6938Z" fill="#32448C"/>
<path d="M38.5173 0.960449V10.0998C38.5173 10.2193 38.5506 10.3089 38.6506 10.3985C38.7839 10.4881 38.9505 10.5479 39.1504 10.5479H39.6168V11.0855H36.0185V10.5479H36.4516C36.6515 10.5479 36.8514 10.518 36.9847 10.3985C37.118 10.2791 37.1846 10.1297 37.1513 9.95051V2.33435C37.1846 2.15514 37.0846 1.94607 36.9514 1.8266C36.7515 1.67726 36.4849 1.58766 36.2184 1.58766H35.552V1.05005L38.5173 0.960449Z" fill="#32448C"/>
<path d="M42.3157 4.27572V8.69608C42.2824 9.14409 42.449 9.59209 42.7822 9.9505C43.0821 10.2492 43.5152 10.3985 43.9483 10.3985C44.5481 10.3985 45.0811 10.1596 45.4476 9.74143C45.8808 9.29342 46.0807 8.72594 46.0807 8.1286V5.61975C46.0807 5.41067 45.9807 5.2016 45.8141 5.08213C45.481 4.9328 45.1145 4.8432 44.748 4.87306V4.36532L47.3801 4.24585V9.74143C47.3801 9.9505 47.4467 10.1596 47.6133 10.3388C47.8132 10.4881 48.0465 10.5478 48.2797 10.5478H48.7461V11.0257L46.2473 11.0855L46.0807 9.7713C45.7142 10.1894 45.2477 10.5478 44.748 10.8465C44.3481 11.0855 43.8484 11.2049 43.3819 11.2049C42.7489 11.2348 42.1491 10.9959 41.6827 10.6076C41.2162 10.2193 40.983 9.53236 40.983 8.57661V5.67948C41.0163 5.44054 40.883 5.2016 40.6498 5.08213C40.35 4.96266 40.0168 4.90293 39.6836 4.9328V4.42505L42.3157 4.27572Z" fill="#32448C"/>
<path d="M50.2446 1.67749H50.7776V4.39542H55.3089V5.0525H50.7776V9.32352C50.7443 9.6222 50.8443 9.92087 51.0775 10.1897C51.2774 10.3987 51.544 10.4883 51.8105 10.4883C52.177 10.4883 52.5102 10.3091 52.7434 10.0403C53.0433 9.59233 53.2099 9.08458 53.1766 8.54697H53.7096C53.6763 9.44299 53.4431 10.1001 53.0433 10.5182C52.6435 10.9364 52.0437 11.1753 51.4107 11.1753C50.8776 11.2052 50.3778 11.026 49.978 10.7273C49.6115 10.3987 49.4449 9.9806 49.4449 9.53259V5.0525H48.1455V4.54475C48.6786 4.48502 49.1451 4.24608 49.4782 3.88767C50.0113 3.23059 50.2779 2.45404 50.2446 1.67749Z" fill="#32448C"/>
<path d="M53.7103 4.39543L56.6757 4.30582V10.0403C56.6757 10.1598 56.709 10.2793 56.8089 10.3689C56.9422 10.4585 57.1088 10.5182 57.2754 10.5182H57.8085V11.0558H54.1768V10.5182H54.6432C54.8431 10.5481 55.0097 10.4884 55.143 10.3689C55.2763 10.2494 55.3096 10.1001 55.3096 9.92088V5.85893C55.3429 5.64985 55.243 5.41092 55.0431 5.26158C54.8431 5.11224 54.5433 5.05251 54.2767 5.05251H53.677V4.39543H53.7103ZM55.7761 1.22949C56.0093 1.22949 56.2425 1.31909 56.4091 1.46843C56.5757 1.61777 56.6757 1.82684 56.6757 2.03591C56.6757 2.24498 56.5757 2.45405 56.4091 2.60339C56.0426 2.90206 55.5095 2.90206 55.143 2.60339C54.8098 2.27485 54.8098 1.79697 55.143 1.46843C55.3429 1.31909 55.5428 1.22949 55.7761 1.22949Z" fill="#32448C"/>
<path d="M61.5402 4.18605C62.5064 4.15619 63.406 4.5146 64.0724 5.17168C64.772 5.85862 65.1385 6.78451 65.1052 7.74027C65.1385 8.39735 64.972 9.02456 64.6388 9.62191C64.3389 10.1297 63.9058 10.5478 63.3394 10.8465C62.7729 11.1451 62.1399 11.2945 61.5069 11.2945C60.5739 11.2945 59.6743 10.9361 59.0413 10.3089C57.7086 8.81549 57.7086 6.69491 59.0413 5.20154C59.6743 4.54446 60.6073 4.18605 61.5402 4.18605ZM61.5402 4.6938C60.9404 4.6938 60.4073 4.9626 60.0742 5.41061C59.7077 5.88849 59.5078 6.66504 59.5078 7.68053C59.5078 8.72589 59.7077 9.50244 60.0742 10.0102C60.374 10.4582 60.9404 10.7569 61.5402 10.7569C62.1399 10.7569 62.7063 10.4881 63.0395 10.0102C63.4393 9.53231 63.6059 8.72589 63.6059 7.6208C63.6059 6.57544 63.406 5.85862 63.0395 5.38075C62.7396 4.9626 62.1399 4.6938 61.5402 4.6938Z" fill="#32448C"/>
<path d="M64.9387 4.39519L67.4043 4.24585C67.5042 4.72373 67.6042 5.23147 67.6375 5.70935C67.9374 5.26134 68.3372 4.90293 68.8036 4.63412C69.2701 4.39519 69.8032 4.27572 70.3363 4.27572C70.7694 4.27572 71.2025 4.36532 71.569 4.54452C71.9355 4.75359 72.2021 5.0224 72.3687 5.38081C72.5686 5.76908 72.6685 6.21709 72.6685 6.63523V9.89077C72.6352 10.07 72.7019 10.279 72.8351 10.3985C73.0017 10.518 73.2349 10.5777 73.4349 10.5479H73.6348V11.0855H70.4029V10.5479H70.4695C70.7361 10.5777 70.9693 10.518 71.2025 10.3985C71.3358 10.279 71.4358 10.1297 71.4024 9.95051V7.08324C71.4358 6.60537 71.3025 6.12749 71.0693 5.70935C70.7694 5.29121 70.2696 5.05227 69.7032 5.08213C69.1035 5.08213 68.5704 5.32107 68.2039 5.73921C67.7708 6.21709 67.5709 6.81444 67.6042 7.44165V9.92064C67.5709 10.0998 67.6375 10.3089 67.8041 10.4284C67.9707 10.5479 68.2039 10.6076 68.4371 10.5777H68.637V11.1153H65.3052V10.5777H65.5051C65.705 10.5777 65.9383 10.5479 66.1049 10.4284C66.2381 10.3388 66.3048 10.2193 66.3048 10.07V5.70935C66.3381 5.47041 66.2381 5.23147 66.0382 5.05227C65.8383 4.90293 65.5718 4.81333 65.3052 4.8432H64.9387V4.39519Z" fill="#32448C"/>
<path d="M83.33 1.91621L83.9963 0.87085H84.5294L84.8293 5.08214H84.3295C83.9297 3.88745 83.4632 2.99143 82.9302 2.45382C82.3637 1.8266 81.4975 1.43833 80.5646 1.40846C79.8982 1.40846 79.2318 1.58766 78.6987 1.94607C78.1323 2.33435 77.6992 2.87196 77.466 3.49917C77.1328 4.33546 76.9995 5.26134 77.0328 6.15736C76.9995 7.02351 77.1328 7.91953 77.466 8.75582C77.6992 9.35316 78.099 9.89077 78.6654 10.279C79.1985 10.6076 79.7982 10.7868 80.4646 10.7569C81.2642 10.8167 82.0306 10.5479 82.6303 10.07C83.1301 9.5921 83.4299 8.93502 83.3966 8.27794V7.29232C83.3966 7.14298 83.33 7.02351 83.1967 6.93391C82.9968 6.84431 82.7636 6.78458 82.5303 6.81444H81.5308V6.3067H86.0621V6.81444H85.7289C85.4957 6.78458 85.2958 6.84431 85.0958 6.96378C84.9626 7.05338 84.8959 7.20272 84.8959 7.38192V11.3841H84.3628C84.1629 10.7569 83.963 10.1596 83.7631 9.5921C83.4299 10.1297 82.9302 10.5777 82.3304 10.9063C81.764 11.2049 81.131 11.3543 80.4646 11.3543C79.4984 11.3543 78.5321 11.1153 77.6992 10.6673C75.067 9.17396 74.2008 6.09763 75.7001 3.64851C76.1665 2.84209 76.8662 2.15514 77.7325 1.67727C78.4988 1.19939 79.3984 0.960452 80.3313 0.930584C80.8311 0.930584 81.2976 0.990319 81.764 1.16952C82.3304 1.28899 82.8635 1.5578 83.33 1.91621Z" fill="#32448C"/>
<path d="M93.9921 10.5477L94.1253 10.7568C94.1253 11.1451 93.6256 11.0853 93.1591 11.0853C92.7926 11.0853 92.0929 11.0555 91.8264 10.9061C91.5598 10.7568 91.4932 10.5477 91.2933 10.0997C90.9268 10.488 90.4603 10.8165 89.9605 11.0555C89.5274 11.2347 89.0609 11.2944 88.5945 11.2944C87.9614 11.3243 87.3617 11.1749 86.8619 10.8464C86.4621 10.5776 86.2622 10.1595 86.2622 9.71145C86.2622 9.0245 86.7287 8.42715 87.6283 7.97914C88.7611 7.4714 89.9939 7.14286 91.26 7.05325V6.03776C91.26 5.67936 91.0934 5.35082 90.7602 5.11188C90.427 4.84307 89.9939 4.7236 89.5274 4.7236C89.1276 4.7236 88.6944 4.8132 88.3279 4.99241C88.0947 5.11188 87.9614 5.26121 87.9614 5.38068C87.9948 5.50015 88.0614 5.61962 88.1613 5.70922C88.2946 5.85856 88.3613 6.03776 88.3946 6.21697C88.3946 6.42604 88.3279 6.60524 88.1613 6.75458C87.9948 6.90392 87.7948 6.96365 87.5616 6.96365C87.2951 6.96365 87.0618 6.87405 86.8953 6.72471C86.7287 6.54551 86.6287 6.33644 86.6287 6.0975C86.6287 5.61962 86.9286 5.20148 87.5283 4.8132C88.228 4.39506 89.0276 4.18599 89.8606 4.21586C90.5936 4.18599 91.2933 4.36519 91.893 4.7236C92.3261 5.02228 92.5927 5.50015 92.5927 5.97803V9.59198C92.5927 9.80105 92.626 10.04 92.7593 10.2192C92.8592 10.3387 92.9925 10.4581 93.1924 10.488C93.4257 10.5179 93.7255 10.5477 93.9921 10.5477ZM91.2266 7.53113C89.8939 7.71033 88.9277 7.97914 88.3613 8.33755C87.9281 8.63622 87.6949 9.08423 87.7282 9.56211C87.6949 9.89065 87.8282 10.1893 88.0614 10.4283C88.2946 10.6373 88.5945 10.7269 88.8944 10.7269C89.5274 10.7269 90.0938 10.488 90.527 10.0997C90.9934 9.68158 91.2266 9.08423 91.2266 8.48689V7.53113Z" fill="#32448C"/>
<path d="M93.7253 4.39507L95.8577 4.2756C95.9576 4.75347 96.0576 5.23135 96.0909 5.67936C96.3908 5.23135 96.8239 4.87294 97.2904 4.57427C97.6902 4.3652 98.1566 4.24573 98.6231 4.24573C99.0896 4.21586 99.5227 4.3652 99.8892 4.60414C100.289 4.93268 100.556 5.32095 100.656 5.79883C100.955 5.35082 101.355 4.93268 101.822 4.63401C102.255 4.39507 102.755 4.24573 103.254 4.24573C103.821 4.21586 104.387 4.39507 104.787 4.78334C105.253 5.32095 105.487 5.94817 105.453 6.63511V9.95039C105.42 10.0997 105.487 10.2491 105.62 10.3685C105.82 10.488 106.053 10.5477 106.286 10.5179H106.619V11.0555H102.888V10.5179H103.254C103.488 10.5477 103.721 10.488 103.921 10.3685C104.054 10.2491 104.121 10.0997 104.121 9.95039V6.63511C104.154 6.21697 104.021 5.79883 103.721 5.47029C103.454 5.20148 103.054 5.05215 102.655 5.05215C102.321 5.05215 102.022 5.14175 101.755 5.29109C101.488 5.47029 101.255 5.70923 101.122 5.97803C100.922 6.30657 100.822 6.66498 100.789 7.05326V9.92052C100.789 10.0699 100.822 10.2491 100.955 10.3685C101.122 10.4581 101.289 10.5179 101.488 10.5179H101.988V11.0555H98.19V10.5179H98.6231C98.823 10.5179 99.0562 10.488 99.2228 10.3685C99.3561 10.2789 99.4227 10.1595 99.4227 10.0101V6.96366C99.4561 6.45591 99.3228 5.97803 99.0229 5.53002C98.7897 5.23135 98.3899 5.08201 97.99 5.08201C97.4903 5.05215 97.0238 5.26122 96.6906 5.58976C96.2575 6.06764 96.0243 6.66498 96.0576 7.2922V9.95039C96.0243 10.0997 96.0909 10.2491 96.2242 10.3685C96.4241 10.488 96.6573 10.5477 96.8905 10.5179H97.2904V11.0555H93.5254V10.5179H94.0918C94.2584 10.5179 94.4583 10.488 94.5916 10.3685C94.6915 10.2789 94.7582 10.1296 94.7582 10.0101V5.64949C94.7915 5.44042 94.6915 5.26122 94.5583 5.11188C94.325 4.96255 94.0252 4.87294 93.7253 4.87294V4.39507Z" fill="#32448C"/>
<path d="M106.819 4.39543L109.485 4.30582V10.0403C109.485 10.1598 109.518 10.2793 109.618 10.3689C109.751 10.4585 109.918 10.5182 110.084 10.5182H110.917V11.0558H106.353V10.5182H107.452C107.652 10.5481 107.819 10.4884 107.952 10.3689C108.085 10.2494 108.119 10.1001 108.119 9.92088V5.73946C108.152 5.53039 108.052 5.29145 107.852 5.14211C107.652 4.99277 107.352 4.93304 107.086 4.93304H106.786L106.819 4.39543ZM108.585 1.22949C108.818 1.22949 109.052 1.31909 109.218 1.46843C109.385 1.61777 109.485 1.82684 109.485 2.03591C109.485 2.24498 109.385 2.45405 109.218 2.60339C108.852 2.90206 108.319 2.90206 107.952 2.60339C107.619 2.27485 107.619 1.79697 107.952 1.46843C108.152 1.31909 108.352 1.22949 108.585 1.22949Z" fill="#32448C"/>
<path d="M110.684 4.39519L113.15 4.24585C113.25 4.72373 113.35 5.23147 113.383 5.70935C113.683 5.26134 114.083 4.90293 114.549 4.63412C115.016 4.39519 115.549 4.27572 116.082 4.27572C116.515 4.27572 116.948 4.36532 117.315 4.54452C117.681 4.75359 117.948 5.0224 118.114 5.38081C118.314 5.76908 118.414 6.21709 118.414 6.63523V9.89077C118.381 10.07 118.448 10.279 118.581 10.3985C118.747 10.518 118.981 10.5777 119.181 10.5479H119.414V11.0855H116.115V10.5479H116.182C116.448 10.5777 116.682 10.518 116.915 10.3985C117.048 10.279 117.148 10.1297 117.115 9.95051V7.08324C117.148 6.60537 117.015 6.12749 116.782 5.70935C116.482 5.29121 115.982 5.05227 115.416 5.08213C114.816 5.08213 114.283 5.32107 113.916 5.73921C113.483 6.21709 113.283 6.81444 113.317 7.44165V9.92064C113.283 10.0998 113.35 10.3089 113.516 10.4284C113.683 10.5479 113.916 10.6076 114.116 10.5777H114.316V11.1153H110.684V10.5777H111.184C111.384 10.5777 111.617 10.5479 111.784 10.4284C111.917 10.3388 111.984 10.2193 111.984 10.07V5.70935C112.017 5.47041 111.917 5.23147 111.717 5.05227C111.517 4.90293 111.251 4.81333 110.984 4.8432H110.584L110.684 4.39519Z" fill="#32448C"/>
<path d="M125.111 4.75367C125.644 4.2758 127.11 3.55898 127.61 3.55898C127.877 3.52911 128.143 3.58885 128.377 3.73818C128.543 3.88752 128.243 4.24593 128.243 4.455C128.243 4.60434 128.177 4.78354 128.077 4.90301C127.977 5.02248 127.81 5.08221 127.677 5.08221C127.377 5.08221 127.177 4.90301 127.077 4.57447C127.044 4.42513 126.977 4.3654 126.877 4.3654C126.411 4.51473 125.944 4.75367 125.578 5.05235C125.778 5.26142 125.944 5.53022 126.044 5.79903C126.144 6.0081 126.177 6.24704 126.177 6.45611C126.177 6.84439 126.078 7.23266 125.844 7.5612C125.578 7.91961 125.178 8.21828 124.745 8.39749C124.278 8.63643 123.779 8.7559 123.245 8.7559H122.379C121.946 8.72603 121.546 8.78576 121.146 8.9351C120.947 9.05457 120.847 9.23377 120.847 9.44284C120.847 9.62205 120.947 9.77138 121.08 9.86099C121.38 9.98046 121.68 10.0402 122.013 10.0103L123.978 9.98045C124.978 9.98045 125.678 10.1298 126.111 10.4285C126.544 10.6973 126.811 11.1751 126.777 11.653C126.777 12.2205 126.511 12.7282 126.044 13.0867C125.345 13.6243 124.312 13.9229 122.946 13.9229C121.813 13.9229 120.947 13.7437 120.413 13.3555C120.014 13.1464 119.78 12.7581 119.747 12.3698C119.747 12.0712 119.914 11.8024 120.147 11.5933C120.547 11.3245 121.046 11.1453 121.546 11.0855C121.113 10.9959 120.713 10.8466 120.347 10.5778C120.08 10.3687 119.947 10.0701 119.947 9.74152C119.947 9.44284 120.08 9.17404 120.28 8.9351C120.58 8.66629 120.98 8.45722 121.38 8.33775C120.98 8.15855 120.613 7.85988 120.38 7.53133C120.147 7.20279 120.047 6.81452 120.047 6.45611C120.047 5.8289 120.347 5.23155 120.88 4.84328C121.513 4.39527 122.279 4.15633 123.079 4.18619C123.445 4.18619 123.812 4.24593 124.145 4.33553C124.478 4.42513 124.811 4.57447 125.111 4.75367ZM123.479 11.0855C122.512 11.0855 121.813 11.205 121.38 11.444C121.013 11.6232 120.78 11.9517 120.747 12.3101C120.747 12.6088 120.913 12.9075 121.213 13.0568C121.746 13.3256 122.379 13.4749 122.979 13.4152C123.679 13.4451 124.412 13.3256 125.045 12.9971C125.511 12.7282 125.744 12.4296 125.744 12.101C125.744 11.892 125.678 11.7128 125.544 11.5634C125.378 11.3842 125.145 11.2349 124.878 11.1751C124.412 11.1154 123.945 11.0557 123.479 11.0855ZM123.012 4.6342C122.579 4.6342 122.146 4.78354 121.846 5.11208C121.513 5.47049 121.346 5.94837 121.38 6.42624C121.346 6.93399 121.513 7.41187 121.846 7.83001C122.379 8.39749 123.379 8.48709 124.012 7.97934C124.078 7.91961 124.145 7.88974 124.178 7.83001C124.512 7.44173 124.678 6.93399 124.645 6.45611C124.678 5.97823 124.512 5.50036 124.178 5.14195C123.912 4.81341 123.479 4.6342 123.012 4.6342Z" fill="#32448C"/>
<path d="M127.877 3.6189C128.11 3.6189 128.343 3.7085 128.51 3.85784C128.676 4.00717 128.776 4.21624 128.776 4.42531C128.776 4.63439 128.676 4.84346 128.51 4.99279C128.143 5.29147 127.61 5.29147 127.244 4.99279C126.91 4.66425 126.91 4.18638 127.244 3.85784C127.443 3.67863 127.643 3.6189 127.877 3.6189Z" fill="#32448C"/>
<path d="M8.86421 11.1453H8.69762V10.9063H8.76425C8.83089 10.9063 8.86421 10.9063 8.93084 10.9063C8.96416 10.9362 8.99748 10.9661 8.99748 10.9959C9.0308 11.0855 8.96416 11.1154 8.86421 11.1453C8.86421 11.1154 8.86421 11.1154 8.86421 11.1453ZM9.16407 11.0258C9.16407 10.9661 9.13075 10.8765 9.06412 10.8466C8.99748 10.7869 8.89753 10.7869 8.79757 10.7869H8.53102V11.5634H8.69762V11.2648H8.83089L8.99748 11.5634H9.16407L8.96416 11.2648C9.13075 11.205 9.19739 11.1154 9.16407 11.0258ZM8.86421 11.7725C8.49771 11.7725 8.19784 11.5037 8.19784 11.1751C8.19784 10.8466 8.49771 10.5778 8.86421 10.5778C9.23071 10.5778 9.53057 10.8466 9.53057 11.1751C9.53057 11.5037 9.23071 11.7725 8.86421 11.7725ZM8.86421 10.4285C8.39775 10.4285 8.03125 10.757 8.03125 11.1751C8.03125 11.5933 8.39775 11.9218 8.86421 11.9218C9.33066 11.9218 9.69716 11.5933 9.69716 11.1751C9.69716 10.757 9.29734 10.4285 8.86421 10.4285Z" fill="#32448C"/>
<path d="M0.101318 0.751342C4.06619 -1.16016 9.1972 0.840944 9.5637 5.67945C2.23369 6.18719 1.33409 3.23033 0.101318 0.751342Z" fill="#32448C"/>
<path d="M0.101318 11.0855C4.06619 12.997 9.16388 10.9661 9.5637 6.15742C2.23369 5.61981 1.33409 8.60654 0.101318 11.0855Z" fill="#32448C"/>
<path d="M8.19765 2.24502C6.29851 0.0348392 2.83341 -0.622241 0.101318 0.751654C1.20082 2.96183 2.03378 5.59016 7.46465 5.73949C8.13101 4.69414 8.39756 3.46958 8.19765 2.24502ZM1.43405 8.63662C1.60064 8.63662 1.73391 8.66649 1.9005 8.66649C4.03287 8.66649 5.99865 7.71073 7.1981 6.12777C3.93291 6.2771 2.40028 7.32246 1.43405 8.63662Z" fill="#32448C"/>
</g>
<defs>
<clipPath id="clip0">
<rect x="0.101318" y="0.034668" width="128.675" height="13.8883" fill="white"/>
</clipPath>
</defs>
</svg>
