<svg width="91" height="22" viewBox="0 0 91 22" fill="none" xmlns="http://www.w3.org/2000/svg">
<path fill-rule="evenodd" clip-rule="evenodd" d="M31.0515 9.69798C31.1149 11.1655 30.7252 12.5115 29.5744 13.6142C28.6591 14.4898 27.5174 14.9682 26.1671 15.0087C25.5237 15.0249 24.8531 15.0573 24.2279 14.9439C21.9897 14.5627 20.44 13.0951 20.0685 11.0439C19.86 9.90059 19.8691 8.75741 20.2497 7.63042C21.0201 5.33582 23.3307 4.03862 26.14 4.30616C29.0579 4.58179 30.9337 6.38991 31.0606 9.02495C31.0606 9.25199 31.0515 9.47904 31.0515 9.69798ZM22.2615 9.50333C22.3339 10.079 22.352 10.4844 22.4337 10.8736C22.7146 12.2033 23.7023 13.1034 24.9982 13.225C26.5749 13.379 27.7802 12.8438 28.3239 11.6682C28.931 10.3628 28.9219 9.01685 28.3329 7.70345C27.8435 6.61696 26.8015 6.08174 25.4241 6.11427C24.092 6.13857 23.0862 6.73048 22.6693 7.83317C22.4427 8.41684 22.3701 9.04924 22.2615 9.50333Z" fill="#32448C"/>
<path fill-rule="evenodd" clip-rule="evenodd" d="M9.09376 7.49313C8.42317 7.49313 7.78878 7.50123 7.16344 7.48503C7.05482 7.48503 6.88253 7.37151 6.86443 7.28228C6.65608 6.44713 6.00359 6.07417 5.14275 6.01748C4.58998 5.98508 4.0099 6.04177 3.47539 6.16339C2.96788 6.27692 2.69602 6.65798 2.66886 7.13636C2.64171 7.59045 2.93167 7.88229 3.35756 8.03631C3.93749 8.24715 4.55362 8.40117 5.1518 8.56342C5.91292 8.76603 6.71039 8.91195 7.45355 9.15519C9.76421 9.92555 10.2536 12.6093 8.43222 14.1174C6.9913 15.3174 2.85005 15.366 1.40929 14.0686C0.657075 13.3957 0.303598 12.6093 0.240234 11.6282C0.947038 11.6282 1.62669 11.62 2.30633 11.6363C2.397 11.6363 2.54199 11.7499 2.56914 11.839C2.8229 12.8038 3.59306 13.2092 4.60809 13.2579C5.16086 13.2903 5.74078 13.2417 6.2845 13.1363C6.83727 13.0309 7.16344 12.6741 7.23601 12.1552C7.30857 11.6606 6.98225 11.3282 6.54731 11.1661C5.66837 10.8498 4.76212 10.6065 3.86492 10.3471C3.39377 10.2093 2.89531 10.1201 2.42416 9.98224C1.2189 9.63358 0.548301 8.87956 0.439527 7.75257C0.303598 6.48776 0.666127 5.39317 2.03447 4.79317C2.57819 4.54992 3.19448 4.4202 3.79251 4.33098C4.80738 4.19316 5.8224 4.23365 6.80106 4.54182C8.25993 5.00401 9.14807 6.1229 9.09376 7.49313Z" fill="#32448C"/>
<path fill-rule="evenodd" clip-rule="evenodd" d="M10.6794 4.55002C12.5099 4.55002 14.3133 4.50129 16.1166 4.56622C18.0106 4.63101 19.0707 5.53109 19.2792 7.20949C19.3516 7.79316 19.3064 8.40937 19.1704 8.98508C18.8352 10.3553 17.7205 11.085 15.9807 11.1336C14.9839 11.1581 13.987 11.1419 12.945 11.1419V14.7013H10.6794V4.55002ZM12.954 9.22022C13.9689 9.22022 14.9747 9.28501 15.9535 9.19592C16.6694 9.131 16.9775 8.64451 17.0137 7.88239C17.05 7.14456 16.7147 6.51216 16.0622 6.43103C15.0382 6.30131 13.9961 6.31751 12.954 6.27702V9.22022Z" fill="#32448C"/>
<path fill-rule="evenodd" clip-rule="evenodd" d="M40.2115 6.35853H36.9312V14.7179H34.584V6.37473H31.2222V4.57471H40.2115V6.35853Z" fill="#32448C"/>
<path fill-rule="evenodd" clip-rule="evenodd" d="M82.984 14.547H82.0325V4.78502C82.9749 4.60657 83.0746 4.6391 83.5731 5.3282C85.3764 7.78492 87.1797 10.2416 88.9739 12.6903C89.0737 12.8281 89.1824 12.9578 89.3636 13.201V4.74439H90.3332V14.4822C89.5176 14.7092 89.2639 14.6362 88.838 14.0443C87.0186 11.5648 85.1972 9.08644 83.3737 6.60934C83.2739 6.47962 83.1744 6.34977 82.9749 6.26068C82.984 9.00923 82.984 11.7579 82.984 14.547Z" fill="#32448C"/>
<path fill-rule="evenodd" clip-rule="evenodd" d="M70.5781 9.61689C70.696 8.94399 70.7322 8.24666 70.9405 7.59806C71.6294 5.44937 73.4779 4.36288 76.142 4.45211C78.2988 4.52513 80.0568 5.90346 80.5644 7.93849C80.8996 9.28442 80.8724 10.6385 80.374 11.952C79.6943 13.7358 78.1176 14.7736 76.0244 14.8385C72.8799 14.9357 70.7774 13.1682 70.6778 10.3385C70.6688 10.1034 70.6778 9.86013 70.6778 9.62499C70.6415 9.62499 70.6143 9.62499 70.5781 9.61689ZM79.8847 9.70611C79.8393 9.69801 79.785 9.68182 79.7397 9.67372C79.7307 8.78174 79.6128 7.91419 79.1506 7.11157C78.4347 5.87916 77.302 5.23853 75.7342 5.23043C74.1576 5.22233 72.9794 5.83043 72.2998 7.07904C71.3937 8.74934 71.3937 10.4925 72.2364 12.179C72.898 13.4845 74.1213 14.1169 75.7161 14.1088C77.3111 14.1007 78.5435 13.46 79.1687 12.1466C79.5312 11.3763 79.6581 10.5251 79.8847 9.70611Z" fill="#32448C"/>
<path fill-rule="evenodd" clip-rule="evenodd" d="M40.7471 9.62532C40.9011 8.8794 40.9646 8.11727 41.2184 7.40375C41.8799 5.54703 43.5925 4.46054 45.7312 4.45244C48.1687 4.44434 49.8453 5.43351 50.5702 7.37135C51.1682 8.99292 51.1773 10.647 50.4433 12.228C49.7003 13.8416 48.341 14.7577 46.3383 14.8388C43.0398 14.9686 40.883 13.1118 40.8649 10.1361V9.64152C40.8287 9.64152 40.7834 9.63342 40.7471 9.62532ZM41.7621 9.60103C41.898 10.2822 41.9523 10.9227 42.1518 11.5389C42.6682 13.1523 44.0546 14.0929 45.849 14.1172C47.6614 14.1334 49.0931 13.2009 49.6459 11.5956C50.0899 10.3065 50.0899 9.00102 49.6278 7.72002C49.0659 6.14704 47.7247 5.2552 45.9577 5.23886C44.1634 5.22266 42.8132 6.05781 42.2242 7.63079C41.9885 8.27129 41.9071 8.96052 41.7621 9.60103Z" fill="#32448C"/>
<path fill-rule="evenodd" clip-rule="evenodd" d="M53.1986 10.3153V13.8828C53.1986 14.653 53.1986 14.653 52.2925 14.5314V4.76137C52.4011 4.75314 52.528 4.72884 52.6549 4.72884C53.9508 4.72884 55.2556 4.69644 56.5516 4.74504C57.1043 4.76947 57.6571 4.93159 58.1918 5.07751C58.4092 5.13433 58.6086 5.27215 58.7807 5.40187C60.3847 6.62618 59.8682 9.39904 57.8745 9.98285C57.0408 10.2261 56.1074 10.2423 55.2194 10.3153C54.585 10.3558 53.9325 10.3153 53.1986 10.3153ZM53.2438 9.46397C53.3707 9.48016 53.4342 9.48826 53.4976 9.48826C54.3313 9.48826 55.165 9.50446 55.9988 9.48016C56.4247 9.46397 56.8687 9.41524 57.2765 9.30995C58.3004 9.05037 58.7263 8.41797 58.672 7.30718C58.6358 6.39914 58.1283 5.74244 57.1405 5.63702C55.8629 5.4992 54.5669 5.5154 53.2438 5.46667V9.46397Z" fill="#32448C"/>
<path fill-rule="evenodd" clip-rule="evenodd" d="M63.129 5.50684H59.7126V4.75269H67.5421V5.50684H64.1529V14.531H63.129V5.50684Z" fill="#32448C"/>
<path fill-rule="evenodd" clip-rule="evenodd" d="M10.9333 0.398682C11.912 0.98249 12.9813 1.20953 14.1502 1.177C14.9477 1.1608 15.7452 1.1851 16.5427 1.25813C17.7025 1.36355 18.654 1.86623 19.4425 2.62026C19.5693 2.73378 19.6872 2.8554 19.9228 3.09054C20.0043 2.96082 20.0405 2.8392 20.1312 2.74998C21.1733 1.66349 22.5144 1.1932 24.1003 1.1689C25.0337 1.15271 25.9671 1.1608 26.8913 1.06348C27.4078 1.01489 27.8972 0.787842 28.4227 0.633825C27.7794 1.49327 26.8551 1.85814 25.7405 1.89863C25.1605 1.91483 24.5714 1.89863 23.9915 1.89863C22.0432 1.89863 20.5389 2.8959 19.9771 4.5581C19.9409 4.65542 19.9136 4.74451 19.8593 4.93106C19.7777 4.69592 19.7234 4.55 19.6691 4.39598C19.1072 2.8797 17.603 1.90673 15.8268 1.89053C14.9658 1.88243 14.0869 1.89863 13.2351 1.79321C12.2201 1.68792 11.4861 1.14461 10.9333 0.398682Z" fill="#32448C"/>
<path fill-rule="evenodd" clip-rule="evenodd" d="M68.3228 4.73633H69.2381V14.5389H68.3228V4.73633Z" fill="#32448C"/>
<path fill-rule="evenodd" clip-rule="evenodd" d="M51.4584 18.8202C52.0476 18.4877 52.3285 18.4958 52.8813 18.8932C53.0172 18.8121 53.135 18.7148 53.289 18.6581C53.8237 18.4391 54.3401 18.6662 54.3946 19.1851C54.4489 19.6553 54.4308 20.1337 54.4217 20.6121C54.4217 20.6931 54.2949 20.7823 54.2315 20.8635C54.168 20.7742 54.0502 20.6931 54.0502 20.604C54.023 20.1985 54.0321 19.8013 54.0321 19.3959C54.0321 19.112 53.9233 18.877 53.5518 18.8851C53.2165 18.8932 52.981 19.0553 52.9537 19.3797C52.9265 19.7689 52.9446 20.158 52.9175 20.5391C52.9084 20.6526 52.7815 20.758 52.7091 20.8635C52.6456 20.758 52.5368 20.6607 52.5368 20.5472C52.5097 20.1742 52.5278 19.8013 52.5278 19.4283C52.5278 19.1527 52.4735 18.8932 52.0928 18.8851C51.7303 18.877 51.4857 19.0553 51.4584 19.3878C51.4222 19.777 51.4313 20.158 51.3951 20.5472C51.386 20.6526 51.2863 20.758 51.2229 20.8635C51.1504 20.758 51.0235 20.6445 51.0235 20.5391C51.0054 20.004 51.0054 19.4688 51.0235 18.9337C51.0235 18.8364 51.1142 18.7391 51.1594 18.6419C51.232 18.6905 51.3317 18.7473 51.4584 18.8202ZM75.3184 17.8148C75.998 17.8148 76.6324 17.7824 77.2486 17.8229C77.6927 17.8553 77.9646 18.2445 77.9646 18.6662C77.9646 19.1284 77.6563 19.4769 77.158 19.5499C76.9133 19.5823 76.6596 19.5823 76.4149 19.5823C75.7535 19.5904 75.7535 19.5823 75.7535 20.1985C75.7535 20.3446 75.7806 20.4986 75.7444 20.6445C75.7262 20.7337 75.6085 20.7985 75.5269 20.8716C75.4543 20.8066 75.3274 20.7418 75.3184 20.6769C75.3093 19.7284 75.3184 18.7878 75.3184 17.8148ZM75.7897 18.1229V19.2337C76.2156 19.2337 76.6053 19.2581 76.9949 19.2256C77.3664 19.1932 77.5296 18.958 77.5114 18.6338C77.4933 18.3175 77.294 18.1392 76.9495 18.1311C76.5691 18.1148 76.1884 18.1229 75.7897 18.1229ZM26.6198 18.7797C26.7739 18.7229 26.8917 18.6743 27.0095 18.6338C27.0457 18.7229 27.1183 18.8121 27.1183 18.9013C27.1183 19.5742 27.1545 20.2473 27.0911 20.9121C27.0276 21.6742 26.058 22.0716 25.3331 21.6499C25.17 21.5526 25.0793 21.3661 24.9615 21.2283C24.9979 21.1877 25.025 21.1553 25.0612 21.1148C25.1791 21.1553 25.3331 21.1715 25.3965 21.2526C25.6683 21.6013 26.058 21.5932 26.3661 21.4228C26.5746 21.3012 26.6562 20.9932 26.7377 20.7418C25.8678 20.9689 25.4419 20.8959 25.1246 20.458C24.8075 20.004 24.871 19.2175 25.2515 18.8607C25.605 18.5284 26.0944 18.5122 26.6198 18.7797ZM25.3241 19.7284C25.3241 20.3527 25.759 20.7256 26.2756 20.5391C26.6562 20.4013 26.8555 19.8905 26.7105 19.4121C26.6017 19.0634 26.3661 18.8283 25.9311 18.8689C25.5415 18.9175 25.3241 19.25 25.3241 19.7284ZM1.01106 19.5661C1.01106 19.9959 1.02011 20.3201 1.00201 20.6445C1.00201 20.7175 0.893234 20.7904 0.838772 20.8635C0.766357 20.7904 0.621375 20.7175 0.621375 20.6445C0.603271 19.712 0.603271 18.7797 0.603271 17.8148C1.27387 17.8148 1.90811 17.7743 2.52439 17.831C2.98649 17.8715 3.24025 18.2526 3.21309 18.7229C3.19499 19.1932 2.88677 19.5175 2.36115 19.558C1.94431 19.5904 1.51842 19.5661 1.01106 19.5661ZM1.03822 19.2337C1.48221 19.2337 1.88095 19.2581 2.27063 19.2256C2.62396 19.2013 2.79625 18.9661 2.7872 18.6662C2.77815 18.3661 2.61491 18.1473 2.25253 18.1311C1.86285 18.1148 1.46411 18.1311 1.03822 18.1311V19.2337ZM30.9424 17.7986C31.5859 17.7986 32.1296 17.7824 32.6732 17.8067C33.2169 17.831 33.5251 18.1311 33.5522 18.6013C33.5794 19.1284 33.2894 19.4932 32.7457 19.558C32.4195 19.5985 32.0842 19.5985 31.749 19.5823C31.4499 19.5742 31.314 19.6634 31.3412 19.9391C31.3593 20.158 31.3593 20.3851 31.3321 20.604C31.3231 20.6931 31.2143 20.7742 31.1598 20.8635C31.0874 20.7823 30.9515 20.7094 30.9515 20.6283C30.9334 19.7039 30.9424 18.7716 30.9424 17.7986ZM31.3683 19.2419C31.7852 19.2419 32.1658 19.2581 32.5464 19.2337C32.9179 19.2094 33.1264 18.9986 33.1173 18.6743C33.1082 18.358 32.9269 18.1392 32.5372 18.1311C32.1567 18.1229 31.7852 18.1311 31.3683 18.1311V19.2419ZM17.6034 18.7554C17.6034 18.5041 17.5851 18.277 17.6124 18.0581C17.6215 17.9689 17.7302 17.8796 17.7846 17.7905C17.857 17.8715 17.9839 17.9527 17.9839 18.0338C18.0021 18.9013 18.0021 19.7608 17.9839 20.6283C17.9839 20.7094 17.8843 20.7823 17.8298 20.8635C17.5037 20.5715 17.2318 20.9525 16.9237 20.9121C16.7968 20.8959 16.6519 20.8959 16.534 20.8554C15.8997 20.6445 15.6368 19.85 15.9359 19.1527C16.1534 18.65 16.8783 18.3986 17.4311 18.7391C17.4492 18.7635 17.4855 18.7554 17.6034 18.7554ZM17.7574 19.85C17.6396 19.3148 17.4584 18.9499 17.1049 18.9175C16.8874 18.8932 16.5793 18.9905 16.4162 19.1284C16.1172 19.3878 16.1263 20.1256 16.4253 20.377C16.5974 20.5229 17.0052 20.6526 17.1411 20.5715C17.4039 20.4175 17.558 20.1013 17.7574 19.85ZM38.944 20.8878C38.8153 20.8341 38.6853 20.7828 38.5543 20.7337C38.1829 20.7904 37.8204 20.8878 37.4578 20.904C37.0774 20.9121 36.7782 20.685 36.8146 20.3608C36.8417 20.1256 37.0591 19.8418 37.2857 19.7201C37.5576 19.5742 37.9291 19.5985 38.2463 19.5256C38.355 19.5013 38.5453 19.404 38.5362 19.3553C38.5181 19.2256 38.4548 19.0391 38.346 18.9823C38.0016 18.804 37.6573 18.8121 37.3492 19.0958C37.2495 19.1851 37.1226 19.25 36.896 19.404C37.0501 18.731 37.4307 18.5527 38.2191 18.6175C38.7357 18.6581 38.935 18.8526 38.935 19.3472C38.9531 19.8256 38.944 20.312 38.944 20.8878ZM38.491 19.7689C38.1556 19.8256 37.8385 19.8581 37.5485 19.9553C37.4126 20.004 37.2314 20.1985 37.2495 20.2958C37.2767 20.4337 37.4488 20.604 37.6028 20.6445C38.0832 20.7661 38.7447 20.3446 38.491 19.7689ZM67.2261 19.1689C67.507 18.6174 68.4676 18.3661 68.9932 18.731C69.1472 18.8364 69.247 19.0796 69.2651 19.2662C69.3014 19.7851 69.2741 20.2959 69.2741 20.8716C69.1584 20.8276 69.0436 20.7816 68.9298 20.7337C68.504 20.7985 68.1324 20.8878 67.7698 20.8959C67.4165 20.904 67.1809 20.685 67.1356 20.3689C67.0902 20.0526 67.2625 19.8013 67.5887 19.7039C67.8967 19.6068 68.2411 19.5904 68.5583 19.5175C68.6761 19.4851 68.8846 19.3635 68.8754 19.3229C68.8301 19.1851 68.7487 18.9986 68.6127 18.9418C68.2774 18.7878 67.9421 18.8121 67.6703 19.0958C67.5796 19.1851 67.4346 19.2337 67.3168 19.2986C67.2806 19.2662 67.2534 19.2175 67.2261 19.1689ZM68.8301 19.7608C68.4858 19.8256 68.1686 19.85 67.8786 19.9472C67.7427 19.9878 67.5615 20.1904 67.5796 20.2877C67.6068 20.4256 67.7789 20.5959 67.9331 20.6364C68.4858 20.7823 68.9117 20.377 68.8301 19.7608ZM64.0635 18.8364C64.2449 18.7554 64.3627 18.6905 64.4804 18.65C65.1419 18.431 65.6585 18.7229 65.6947 19.3472C65.7218 19.7527 65.7218 20.1499 65.7037 20.5553C65.6947 20.6607 65.5859 20.758 65.5226 20.8635C65.45 20.7499 65.3323 20.6445 65.3233 20.531C65.296 20.1742 65.3141 19.8175 65.3141 19.4607C65.3141 19.1527 65.1964 18.9175 64.8248 18.8932C64.417 18.8689 64.1361 19.0634 64.0908 19.4283C64.0454 19.8013 64.0816 20.1742 64.0545 20.5472C64.0454 20.6607 63.9276 20.7661 63.8552 20.8716C63.8007 20.7661 63.6921 20.6688 63.6921 20.5634C63.674 19.7446 63.674 18.9256 63.6921 18.0986C63.6921 17.9931 63.8007 17.896 63.8642 17.7986C63.9276 17.896 64.0454 17.985 64.0545 18.0824C64.0816 18.3094 64.0635 18.5446 64.0635 18.8364ZM44.7709 19.7446C44.7799 19.0148 45.2239 18.5932 45.976 18.6013C46.683 18.6094 47.1269 19.0472 47.1269 19.7527C47.1269 20.4905 46.6829 20.9202 45.9488 20.9202C45.2149 20.9202 44.7709 20.4743 44.7709 19.7446ZM46.7101 19.7446C46.7101 19.2175 46.402 18.8689 45.9488 18.8689C45.4958 18.8689 45.1877 19.2256 45.1787 19.7527C45.1787 20.2958 45.5048 20.6688 45.976 20.6526C46.4292 20.6283 46.7192 20.2796 46.7101 19.7446ZM84.0631 19.7608C84.0541 20.4905 83.6101 20.9202 82.8669 20.9121C82.142 20.904 81.698 20.4499 81.7071 19.7201C81.7252 18.9986 82.1782 18.577 82.9304 18.5932C83.6372 18.6094 84.0722 19.0634 84.0631 19.7608ZM82.1149 19.7446C82.1058 20.2635 82.4048 20.6283 82.8579 20.6526C83.3292 20.6688 83.6553 20.2958 83.6553 19.7527C83.6553 19.2337 83.3382 18.877 82.8942 18.8689C82.441 18.8607 82.1239 19.2175 82.1149 19.7446ZM21.8987 18.7878C22.1796 18.7229 22.4424 18.6175 22.7052 18.6013C23.2035 18.577 23.4844 18.8202 23.5117 19.2662C23.5389 19.712 23.5298 20.158 23.5117 20.604C23.5117 20.6931 23.3939 20.7742 23.3304 20.8554C23.267 20.7742 23.1492 20.6931 23.1401 20.604C23.122 20.2147 23.1311 19.8256 23.122 19.4445C23.113 19.1203 22.968 18.877 22.5783 18.877C22.2067 18.877 21.9349 19.0472 21.9077 19.4121C21.8806 19.7851 21.9077 20.158 21.8715 20.531C21.8624 20.6445 21.7356 20.7499 21.663 20.8635C21.5996 20.758 21.4818 20.6607 21.4818 20.5553C21.4637 20.0202 21.4637 19.4851 21.4818 18.9499C21.4818 18.8445 21.5633 18.7391 21.5996 18.6338C21.7175 18.6986 21.8261 18.7554 21.8987 18.7878ZM9.32072 19.7932C9.31167 20.531 8.86767 20.9364 8.1064 20.9202C7.3996 20.904 6.99181 20.4662 7.00086 19.7446C7.00992 19.0067 7.43581 18.5932 8.19707 18.6013C8.92198 18.6013 9.32977 19.0391 9.32072 19.7932ZM7.3996 19.7608C7.3996 20.4094 7.8436 20.7823 8.38732 20.604C8.80416 20.4662 9.03076 19.9715 8.89483 19.4688C8.7951 19.0958 8.5415 18.8526 8.0883 18.877C7.65336 18.8932 7.3996 19.2337 7.3996 19.7608ZM55.7901 20.1256C56.0076 20.2473 56.1253 20.3282 56.2612 20.3932C56.4607 20.4905 56.669 20.6445 56.8594 20.6283C57.0587 20.6121 57.24 20.4175 57.4303 20.3039C57.2853 20.1823 57.1675 20.0283 56.9953 19.9553C56.7597 19.85 56.4788 19.8337 56.2431 19.7365C55.8353 19.5742 55.7358 19.1365 56.0167 18.8445C56.4516 18.3905 57.4846 18.577 57.7746 19.2824C57.5391 19.177 57.4122 19.112 57.2763 19.0634C57.0859 18.9905 56.8866 18.877 56.6963 18.8851C56.5423 18.8932 56.3972 19.0634 56.2522 19.1608C56.37 19.2662 56.4697 19.4121 56.6147 19.4688C56.8685 19.5742 57.1584 19.6068 57.4212 19.6958C57.8924 19.8662 58.0012 20.3039 57.675 20.6364C57.3487 20.9689 56.9047 20.9608 56.4697 20.8878C56.0891 20.8311 55.8534 20.6121 55.7901 20.1256ZM10.4717 18.6257C11.1331 18.65 11.0154 19.112 11.1694 19.3635C11.3416 19.6634 11.4322 19.9959 11.6044 20.4337C11.7765 20.0121 11.8853 19.6715 12.0574 19.3553C12.2024 19.0958 12.1209 18.6581 12.7552 18.6013C12.429 19.3635 12.1571 20.0607 11.84 20.7337C11.7222 20.977 11.4684 20.9364 11.3597 20.7012C11.0606 20.0526 10.7978 19.3797 10.4717 18.6257ZM85.9843 18.5689C86.1564 18.6175 86.3014 18.6581 86.5915 18.7391C86.3014 18.8526 86.1473 18.9094 85.9661 18.9823C85.9661 19.4932 85.9752 20.0121 85.9571 20.5391C85.948 20.6526 85.8302 20.758 85.7578 20.8716C85.6943 20.7661 85.5946 20.6688 85.5855 20.5634C85.5584 20.223 85.5765 19.8743 85.5765 19.5337C85.5765 19.2337 85.7033 18.8851 85.2865 18.8364C85.4043 18.577 85.5312 18.3661 85.6036 18.1473C85.7033 17.831 86.1292 17.604 86.4646 17.7337C86.5189 17.758 86.6005 17.8553 86.5915 17.8879C86.5642 17.9527 86.4827 18.0176 86.4101 18.0419C85.9843 18.1554 85.9843 18.1473 85.9843 18.5689ZM43.2485 18.5689C43.4206 18.6175 43.5656 18.6581 43.7106 18.6986C43.7197 18.731 43.7197 18.7716 43.7287 18.804C43.5747 18.8526 43.4297 18.9094 43.2302 18.9742C43.2302 19.4932 43.2395 20.0202 43.2212 20.5553C43.2212 20.6607 43.1126 20.7661 43.0581 20.8635C42.9857 20.758 42.8679 20.6526 42.8588 20.5391C42.8317 20.2147 42.8407 19.8824 42.8498 19.558C42.8679 19.2337 42.9041 18.9175 42.5506 18.8202C42.6684 18.577 42.7863 18.3661 42.8588 18.1473C42.9584 17.831 43.3754 17.604 43.7106 17.7337C43.774 17.758 43.8556 17.8472 43.8375 17.8796C43.8103 17.9446 43.7287 18.0338 43.6653 18.0338C43.2485 18.0338 43.2031 18.2526 43.2485 18.5689ZM40.992 18.5527C41.146 18.6094 41.291 18.6581 41.4724 18.7229C41.2729 18.8689 41.0101 18.9661 41.0011 19.0877C40.9558 19.5175 40.992 19.9472 41.0101 20.377C41.0101 20.4418 41.1279 20.4986 41.1915 20.5634C41.2729 20.6445 41.3455 20.7256 41.427 20.8066C41.3091 20.8392 41.1915 20.8959 41.0736 20.8959C40.7473 20.8797 40.6114 20.685 40.6023 20.4175C40.5933 20.0769 40.6204 19.7284 40.5842 19.3878C40.5661 19.1689 40.4573 18.958 40.3759 18.6905L40.8199 17.896C40.8651 17.9122 40.9013 17.9284 40.9468 17.9446C40.9558 18.1473 40.9739 18.3499 40.992 18.5527ZM70.6969 18.7067C70.8329 18.4634 70.9869 18.1797 71.1409 17.9041C71.1862 17.9203 71.2225 17.9365 71.2678 17.9527L71.3221 18.5608C71.4761 18.6175 71.6211 18.6662 71.7934 18.731C71.594 18.877 71.3312 18.9823 71.3221 19.0958C71.2859 19.5418 71.3221 19.9878 71.3493 20.4337C71.3493 20.4824 71.458 20.531 71.5216 20.5796C71.603 20.6445 71.6846 20.7175 71.7663 20.7823C71.6394 20.8228 71.5125 20.904 71.3947 20.904C71.0684 20.8959 70.9324 20.6931 70.9234 20.4256C70.9143 20.085 70.9415 19.7365 70.9053 19.3959C70.8781 19.177 70.7784 18.9661 70.6969 18.7067ZM61.3451 18.6905C61.4718 18.4634 61.626 18.1716 61.8344 17.7824C62.0338 18.204 61.7165 18.6905 62.369 18.7878C62.2331 18.8526 62.1062 18.9094 61.9431 18.9905C61.9431 19.3959 61.925 19.8094 61.9522 20.223C61.9612 20.3446 62.1153 20.4662 62.2059 20.5796C62.2602 20.6526 62.3147 20.7256 62.36 20.8066C62.2783 20.8392 62.1969 20.904 62.1153 20.904C61.7891 20.9121 61.5715 20.7985 61.5625 20.4662C61.5625 20.1256 61.5715 19.777 61.5444 19.4364C61.5263 19.2094 61.4266 18.9823 61.3451 18.6905ZM89.5003 18.6905C89.6181 18.4715 89.7631 18.1797 89.9172 17.8879C89.9624 17.9041 90.0078 17.9122 90.0531 17.9284C90.0621 18.1311 90.0802 18.3256 90.0893 18.5527C90.2162 18.6013 90.3521 18.6581 90.5787 18.7473C89.8627 18.958 90.1165 19.4283 90.0712 19.8094C90.0259 20.223 90.0259 20.6121 90.7599 20.7418C89.9624 21.0013 89.7087 20.8635 89.6906 20.3446C89.6815 20.0769 89.7087 19.8094 89.6815 19.5418C89.6634 19.2743 89.5727 18.9986 89.5003 18.6905ZM49.8636 18.7797C49.7549 18.8364 49.6461 18.9499 49.5373 18.9499C49.1205 18.9337 48.9664 19.1446 48.9393 19.4688C48.9121 19.8418 48.9302 20.2147 48.9031 20.5796C48.894 20.685 48.7762 20.7742 48.7036 20.8716C48.6403 20.7742 48.5134 20.6688 48.5134 20.5715C48.4953 20.0202 48.4953 19.4688 48.5134 18.9256C48.5134 18.8283 48.6131 18.731 48.6674 18.6419C48.7581 18.7067 48.8486 18.7635 48.8577 18.7716C49.1633 18.7142 49.4684 18.6547 49.773 18.5932C49.8092 18.65 49.8365 18.7148 49.8636 18.7797ZM5.03449 18.7635C5.28824 18.7067 5.51469 18.6419 5.74129 18.6175C5.79575 18.6094 5.86817 18.7391 5.93153 18.804C5.85006 18.8526 5.76845 18.958 5.69603 18.9499C5.24283 18.9094 5.09785 19.1527 5.06164 19.4769C5.02543 19.85 5.04354 20.223 5.01638 20.5878C5.00733 20.685 4.90761 20.7661 4.8533 20.8554C4.78073 20.7661 4.65385 20.6688 4.6448 20.5796C4.6267 20.0283 4.6267 19.4769 4.6448 18.9256C4.6448 18.8202 4.72642 18.7229 4.77168 18.6257C4.8895 18.6905 4.99828 18.7473 5.03449 18.7635ZM79.3963 18.5122C79.5212 18.5974 79.6451 18.6839 79.7679 18.7716C80.0216 18.7148 80.239 18.65 80.4656 18.6257C80.5199 18.6175 80.6015 18.7473 80.6649 18.8202C80.6015 18.8689 80.529 18.9742 80.4747 18.9661C79.8493 18.9013 79.8041 19.2905 79.7769 19.6715C79.7588 19.9959 79.7769 20.3282 79.7588 20.6526C79.7588 20.7256 79.65 20.7985 79.5957 20.8797C79.5232 20.8147 79.3963 20.758 79.3963 20.6931C79.3872 20.004 79.3963 19.331 79.3963 18.5122ZM35.3646 19.3553C35.3646 19.7689 35.3736 20.1904 35.3555 20.604C35.3555 20.6931 35.2377 20.7742 35.1743 20.8635C35.1108 20.7823 34.984 20.7012 34.984 20.6202C34.9659 19.7689 34.9659 18.9175 34.984 18.0743C34.984 17.9769 35.1199 17.8879 35.1834 17.7986C35.2377 17.8879 35.3465 17.9769 35.3465 18.0662C35.3736 18.4958 35.3646 18.9256 35.3646 19.3553ZM19.9323 19.7446C19.9323 20.0445 19.9504 20.3363 19.9232 20.6364C19.914 20.7175 19.7873 20.7904 19.7147 20.8635C19.6604 20.7904 19.5607 20.7175 19.5516 20.6364C19.5426 20.0445 19.5335 19.4526 19.5516 18.8526C19.5516 18.7716 19.6785 18.6986 19.7509 18.6257C19.8054 18.6986 19.905 18.7716 19.914 18.8526C19.9413 19.1527 19.9323 19.4526 19.9323 19.7446ZM14.4225 19.7284C14.4225 20.0364 14.4316 20.3527 14.4135 20.6607C14.4044 20.7337 14.2957 20.7985 14.2323 20.8635C14.1689 20.7985 14.0511 20.7256 14.0511 20.6607C14.033 20.0526 14.033 19.4445 14.0511 18.8364C14.0511 18.7635 14.1689 18.6986 14.2323 18.6338C14.2957 18.6986 14.4044 18.7635 14.4135 18.8364C14.4316 19.1365 14.4225 19.4283 14.4225 19.7284ZM88.0685 19.8013C88.0685 20.0688 88.0867 20.3363 88.0594 20.604C88.0504 20.6931 87.9508 20.7823 87.8963 20.8635C87.8239 20.7823 87.697 20.7094 87.697 20.6283C87.6789 20.0364 87.6789 19.4445 87.697 18.8526C87.697 18.7797 87.8056 18.7067 87.8692 18.6338C87.9416 18.7148 88.0594 18.7878 88.0685 18.8689C88.0867 19.177 88.0685 19.4932 88.0685 19.8013Z" fill="#32448C"/>
</svg>
